HIERARCHY
ROOT hip
{
	OFFSET 0.000000 0.000000 0.000000 
	CHANNELS 6 Xposition Yposition Zposition Xrotation Zrotation Yrotation
	JOINT abdomen
	{
		OFFSET 0.000000 3.402643 0.000000 
		CHANNELS 3 Xrotation Zrotation Yrotation
		JOINT chest
		{
			OFFSET 0.000000 8.438565 -0.680529 
			CHANNELS 3 Xrotation Zrotation Yrotation
			JOINT neck
			{
				OFFSET 0.000000 10.207942 -0.272212 
				CHANNELS 3 Xrotation Zrotation Yrotation
				JOINT head
				{
					OFFSET 0.000000 3.130431 0.000000 
					CHANNELS 3 Xrotation Zrotation Yrotation
					End Site
					{
						OFFSET 0.000000 3.130435 0.000000 
					}
				}
			}
			JOINT lCollar
			{
				OFFSET 3.470700 6.669187 -0.816635 
				CHANNELS 3 Yrotation Zrotation Xrotation
				JOINT lShldr
				{
					OFFSET 3.198488 0.000000 0.000000 
					CHANNELS 3 Zrotation Yrotation Xrotation
					JOINT lForeArm
					{
						OFFSET 10.139888 0.000000 0.000000 
						CHANNELS 3 Yrotation Zrotation Xrotation
						JOINT lHand
						{
							OFFSET 8.370511 0.000000 0.000000 
							CHANNELS 3 Zrotation Yrotation Xrotation
							End Site
							{
								OFFSET 4.083176 0.000000 0.000000 
							}
						}
					}
				}
			}
			JOINT rCollar
			{
				OFFSET -3.470700 6.669187 -0.816635 
				CHANNELS 3 Yrotation Zrotation Xrotation
				JOINT rShldr
				{
					OFFSET -3.198488 0.000000 0.000000 
					CHANNELS 3 Zrotation Yrotation Xrotation
					JOINT rForeArm
					{
						OFFSET -10.139888 0.000000 0.000000 
						CHANNELS 3 Yrotation Zrotation Xrotation
						JOINT rHand
						{
							OFFSET -8.370511 0.000000 0.000000 
							CHANNELS 3 Zrotation Yrotation Xrotation
							End Site
							{
								OFFSET -4.083176 0.000000 0.000000 
							}
						}
					}
				}
			}
		}
	}
	JOINT lThigh
	{
		OFFSET 5.308129 -1.633274 1.361059 
		CHANNELS 3 Xrotation Zrotation Yrotation
		JOINT lShin
		{
			OFFSET -2.041588 -20.007561 0.000000 
			CHANNELS 3 Xrotation Zrotation Yrotation
			JOINT lFoot
			{
				OFFSET 0.000000 -19.190928 -1.224953 
				CHANNELS 3 Xrotation Yrotation Zrotation
				End Site
				{
					OFFSET 0.000000 -2.449906 4.627600 
				}
			}
		}
	}
	JOINT rThigh
	{
		OFFSET -5.308129 -1.633274 1.361059 
		CHANNELS 3 Xrotation Zrotation Yrotation
		JOINT rShin
		{
			OFFSET 2.041588 -20.007561 0.000000 
			CHANNELS 3 Xrotation Zrotation Yrotation
			JOINT rFoot
			{
				OFFSET 0.000000 -19.190928 -1.224953 
				CHANNELS 3 Xrotation Yrotation Zrotation
				End Site
				{
					OFFSET 0.000000 -2.449906 4.627600 
				}
			}
		}
	}
}
MOTION
Frames: 8
Frame Time: 0.016667
-0.214568 22.442045 -25.728285 -24.466221 -19.313095 9.295863 43.899033 30.958334 0.595456 -5.114510 1.052906 5.196006 -15.463538 -9.044363 1.459330 5.651996 5.052768 -61.441383 -5.869275 -17.751509 -0.945332 -55.427052 -24.830666 23.734135 -130.663300 5.000000 8.979049 -10.620439 -25.988268 24.159958 14.236046 4.439962 -0.227694 62.449268 38.684406 39.294643 125.585762 -3.722509 3.861908 -17.586924 10.079731 23.155384 -102.695900 16.906582 -26.955536 107.441849 4.216564 -11.233499 12.153883 0.796838 -6.136273 -3.527861 -12.680051 -39.994114 144.990112 -8.393145 3.724066 -57.308914 -31.884884 10.533072 
-0.219901 22.436712 -25.736284 -24.464619 -19.283655 9.305068 43.910164 30.920908 0.544652 -5.093645 1.082175 5.156950 -15.503887 -9.033229 1.467403 5.620084 5.040317 -61.429207 -5.800916 -17.751509 -0.945332 -55.467834 -24.860844 23.767134 -130.668594 5.000000 9.045157 -10.769760 -25.863194 24.146772 14.226046 4.381447 -0.224668 62.514374 38.771088 39.352390 125.538506 -3.763708 3.892560 -17.440168 10.123190 23.104254 -102.684303 16.875156 -26.927198 107.443123 4.197370 -11.211684 12.161694 0.864309 -6.128622 -3.538395 -12.697609 -39.994213 144.991638 -8.403226 3.703237 -57.329891 -31.881575 10.620782 
-0.227634 22.429781 -25.747488 -24.445204 -19.244053 9.323480 43.890259 30.865108 0.461120 -5.042382 1.130944 5.117895 -15.563763 -9.022096 1.475477 5.571143 4.996690 -61.402313 -5.716307 -17.760286 -0.955090 -55.524433 -24.918110 23.809553 -130.675598 5.000000 9.090684 -10.965382 -25.676916 24.162920 14.215974 4.303427 -0.220634 62.570511 38.889687 39.414127 125.472435 -3.816005 3.920062 -17.230745 10.166252 23.013802 -102.681160 16.856359 -26.885422 107.412834 4.216623 -11.224133 12.179210 0.845370 -6.133345 -3.577723 -12.736084 -39.993370 144.991318 -8.403171 3.712261 -57.302788 -31.891687 10.701092 
-0.236967 22.421783 -25.760813 -24.427444 -19.214088 9.341897 43.856731 30.821690 0.341235 -4.960739 1.199214 5.079043 -15.634932 -9.009479 1.494613 5.506585 4.929601 -61.372120 -5.618822 -17.770056 -0.955595 -55.607525 -24.971523 23.859715 -130.682220 5.000000 9.121536 -11.220361 -25.445210 24.220371 14.215635 4.215654 -0.216094 62.632553 39.023540 39.477997 125.416832 -3.877434 3.947801 -16.968157 10.210782 22.906057 -102.676239 16.838047 -26.824621 107.383278 4.238050 -11.208046 12.180303 0.854703 -6.120842 -3.635746 -12.757401 -39.990437 144.991638 -8.403229 3.703227 -57.291325 -31.870790 10.807022 
-0.246031 22.414320 -25.773081 -24.416037 -19.184652 9.351107 43.844490 30.778376 0.252213 -4.889678 1.257749 5.030230 -15.714331 -8.998343 1.502686 5.453707 4.868580 -61.332436 -5.531275 -17.789574 -0.956602 -55.667847 -25.040825 23.892954 -130.699646 5.000000 9.162034 -11.454339 -25.221678 24.285164 14.205537 4.127881 -0.211554 62.694565 39.157261 39.542313 125.351196 -3.937835 3.980705 -16.720385 10.246086 22.811287 -102.674873 16.818727 -26.799028 107.344452 4.214150 -11.220086 12.205091 0.901099 -6.098374 -3.664775 -12.768021 -39.988960 144.991180 -8.397771 3.701724 -57.315643 -31.831127 10.882753 
-0.254028 22.408989 -25.781075 -24.427105 -19.176071 9.329478 43.876701 30.734232 0.219511 -4.829537 1.296786 5.020476 -15.805276 -8.995378 1.521753 5.399047 4.845155 -61.329128 -5.463260 -17.809086 -0.957610 -55.727104 -25.103302 23.943659 -130.718597 5.000000 9.221999 -11.592298 -25.025671 24.363176 14.176023 4.069366 -0.208528 62.755463 39.292603 39.624462 125.294685 -3.987921 4.015681 -16.486944 10.224769 22.725414 -102.682053 16.856194 -26.789553 107.343681 4.209027 -11.246640 12.215018 0.901712 -6.087993 -3.682739 -12.780607 -39.998131 144.993164 -8.413301 3.683861 -57.236542 -31.791683 11.000506 
-0.262023 22.403658 -25.789061 -24.436512 -19.157848 9.307852 43.910366 30.699242 0.200450 -4.760439 1.326087 4.991191 -15.896224 -8.992412 1.540821 5.353797 4.818523 -61.314579 -5.395245 -17.828602 -0.958617 -55.786358 -25.165701 23.994520 -130.735550 5.000000 9.269422 -11.743942 -24.834324 24.440474 14.136746 4.010850 -0.205500 62.826069 39.421551 39.707066 125.238884 -4.047804 4.049290 -16.248158 10.215588 22.647535 -102.691307 16.895348 -26.798399 107.334457 4.187274 -11.253025 12.206267 0.911943 -6.065399 -3.723146 -12.767772 -39.994709 144.991959 -8.403286 3.694195 -57.249332 -31.765892 11.053857 
-0.267887 22.400461 -25.793859 -24.462366 -19.178171 9.286222 43.964077 30.688261 0.193153 -4.699375 1.374854 4.961901 -15.977937 -9.008749 1.564336 5.302683 4.768421 -61.297623 -5.327403 -17.857866 -0.960128 -55.833534 -25.213154 24.030546 -130.754166 5.000000 9.316291 -11.831584 -24.699957 24.553867 14.126840 3.971840 -0.203482 62.878201 39.519028 39.788162 125.211998 -4.097720 4.080091 -16.073196 10.183277 22.573511 -102.677460 16.945196 -26.777508 107.322060 4.198760 -11.316123 12.243313 0.986066 -6.025639 -3.723958 -12.726828 -39.992729 144.990768 -8.383461 3.678792 -57.257908 -31.779341 11.074322 
